{"title":"[OOTR] Naruto Shippuuden Episodes 91-143 MANGA EDIT MP4","uid":8069240,"size":2026618342,"categoryP":"video","categoryS":"tv_shows","magnet":"?xt=urn:btih:645314df6487700cdd6debb7fe52a49e7b7c245d&amp;dn=%5BOOTR%5D+Naruto+Shippuuden+Episodes+91-143+MANGA+EDIT+MP4&amp;tr=udp%3A%2F%2Ftracker.openbittorrent.com%3A80&amp;tr=udp%3A%2F%2Fopen.demonii.com%3A1337&amp;tr=udp%3A%2F%2Ftracker.coppersurfer.tk%3A6969&amp;tr=udp%3A%2F%2Fexodus.desync.com%3A6969","seeders":2,"leechers":0,"uploader":"OOTR","files":1,"time":1359235773,"description":"[OOTR]\n\nNaruto Shippuuden Episodes 91-143, sans filler. Manga Edit\n\nJapanese Audio/ English H.Sub\n\nFormat : MPEG-4\nCodec ID : M4V\nFile size : 1.89 GiB\nDuration : 7h 6mn\nOverall bit rate mode : Variable\nOverall bit rate : 633 Kbps\nEncoded date : UTC 2013-01-26 11:36:24\n\nVideo\nID : 1\nFormat : AVC\nFormat/Info : Advanced Video Codec\nFormat profile : &lt;a class=&quot;__cf_email__&quot; href=&quot;/cdn-cgi/l/email-protection&quot; data-cfemail=&quot;98d0f1fff0d8d4abb6aa&quot;&gt;[email&amp;#160;protected]&lt;/a&gt;&lt;script cf-hash='f9e31' type=&quot;text/javascript&quot;&gt;\n/* &lt;![CDATA[ */!function(){try{var t=&quot;currentScript&quot;in document?document.currentScript:function(){for(var t=document.getElementsByTagName(&quot;script&quot;),e=t.length;e--;)if(t[e].getAttribute(&quot;cf-hash&quot;))return t[e]}();if(t&amp;&amp;t.previousSibling){var e,r,n,i,c=t.previousSibling,a=c.getAttribute(&quot;data-cfemail&quot;);if(a){for(e=&quot;&quot;,r=parseInt(a.substr(0,2),16),n=2;a.length-n;n+=2)i=parseInt(a.substr(n,2),16)^r,e+=String.fromCharCode(i);e=document.createTextNode(e),c.parentNode.replaceChild(e,c)}}}catch(u){}}();/* ]]&gt; */&lt;/script&gt;\nFormat settings, CABAC : No\nFormat settings, ReFrames : 2 frames\nCodec ID : avc1\nCodec ID/Info : Advanced Video Coding\nDuration : 7h 6mn\nSource duration : 7h 6mn\nBit rate mode : Variable\nBit rate : 505 Kbps\nWidth : 854 pixels\nHeight : 480 pixels\nDisplay aspect ratio : 16:9\nFrame rate mode : Variable\nFrame rate : 23.976 fps\nMinimum frame rate : 23.976 fps\nMaximum frame rate : 24.000 fps\nStandard : NTSC\nColor space : YUV\nChroma subsampling : 4:2:0\nBit depth : 8 bits\nScan type : Progressive\nBits/(Pixel*Frame) : 0.051\nStream size : 1.51 GiB (80%)\nSource stream size : 1.51 GiB (80%)\nLanguage : English\nEncoded date : UTC 2013-01-26 11:36:24\nmdhd_Duration : 25596738\nColor primaries : BT.709\n\nAudio\nID : 2\nFormat : AAC\nFormat/Info : Advanced Audio Codec\nFormat profile : LC\nCodec ID : 40\nDuration : 7h 6mn\nSource duration : 7h 6mn\nBit rate mode : Variable\nBit rate : 126 Kbps\nMaximum bit rate : 210 Kbps\nChannel(s) : 2 channels\nChannel positions : Front: L R\nSampling rate : 44.1 KHz\nCompression mode : Lossy\nStream size : 383 MiB (20%) ","torrent":{"xt":"urn:btih:645314df6487700cdd6debb7fe52a49e7b7c245d","amp;dn":"%5BOOTR%5D+Naruto+Shippuuden+Episodes+91-143+MANGA+EDIT+MP4","amp;tr":["udp%3A%2F%2Ftracker.openbittorrent.com%3A80","udp%3A%2F%2Fopen.demonii.com%3A1337","udp%3A%2F%2Ftracker.coppersurfer.tk%3A6969","udp%3A%2F%2Fexodus.desync.com%3A6969"],"infoHash":"645314df6487700cdd6debb7fe52a49e7b7c245d","infoHashBuffer":{"type":"Buffer","data":[100,83,20,223,100,135,112,12,221,109,235,183,254,82,164,158,123,124,36,93]},"announce":[],"urlList":[]}}